<?xml version="1.0" standalone="no"?>
<!DOCTYPE svg PUBLIC "-//W3C//DTD SVG 20010904//EN"
 "http://www.w3.org/TR/2001/REC-SVG-20010904/DTD/svg10.dtd">
<svg version="1.0" xmlns="http://www.w3.org/2000/svg"
 width="265.000000pt" height="265.000000pt" viewBox="0 0 265.000000 265.000000"
 preserveAspectRatio="xMidYMid meet">
<metadata>
Created by potrace 1.14, written by Peter Selinger 2001-2017
</metadata>
<g transform="translate(0.000000,265.000000) scale(0.100000,-0.100000)"
fill="#000000" stroke="none">
<path d="M0 1325 l0 -1325 1325 0 1325 0 0 1325 0 1325 -1325 0 -1325 0 0
-1325z m2090 1191 c0 -2 -8 -10 -17 -17 -16 -13 -17 -12 -4 4 13 16 21 21 21
13z m-70 -50 c0 -2 -8 -10 -17 -17 -16 -13 -17 -12 -4 4 13 16 21 21 21 13z
m-50 -39 c-24 -22 -126 -92 -114 -78 13 14 116 90 124 91 2 0 -2 -6 -10 -13z
m-130 -91 c0 -3 -15 -14 -32 -26 l-33 -22 30 26 c31 27 35 29 35 22z m-507
-23 c-7 -2 -19 -2 -25 0 -7 3 -2 5 12 5 14 0 19 -2 13 -5z m-56 -9 c-3 -3 -12
-4 -19 -1 -8 3 -5 6 6 6 11 1 17 -2 13 -5z m100 0 c-3 -3 -12 -4 -19 -1 -8 3
-5 6 6 6 11 1 17 -2 13 -5z m-138 -8 c-10 -9 -109 -56 -109 -51 0 6 91 54 104
55 5 0 7 -2 5 -4z m176 -6 c3 -6 -1 -7 -9 -4 -18 7 -21 14 -7 14 6 0 13 -4 16
-10z m355 -4 c0 -2 -8 -10 -17 -17 -16 -13 -17 -12 -4 4 13 16 21 21 21 13z
m-164 -114 c19 15 24 17 15 5 -33 -42 -45 -39 -107 26 l-59 62 61 -58 60 -58
30 23z m124 83 c0 -2 -20 -18 -45 -35 -25 -17 -45 -29 -45 -26 0 4 80 64 88
66 1 0 2 -2 2 -5z m-645 -41 c-26 -20 -55 -36 -55 -30 0 5 63 46 70 46 3 -1
-4 -8 -15 -16z m-645 -8 c0 -2 -8 -10 -17 -17 -16 -13 -17 -12 -4 4 13 16 21
21 21 13z m560 -47 c-27 -21 -71 -47 -55 -32 19 18 68 53 74 53 3 0 -5 -9 -19
-21z m-650 -23 c0 -2 -8 -10 -17 -17 -16 -13 -17 -12 -4 4 13 16 21 21 21 13z
m580 -20 c0 -3 -15 -14 -32 -26 l-33 -22 30 26 c31 27 35 29 35 22z m-670 -49
c0 -2 -10 -12 -22 -23 l-23 -19 19 23 c18 21 26 27 26 19z m600 -1 c0 -3 -15
-14 -32 -26 l-33 -22 30 26 c31 27 35 29 35 22z m1497 -2 c-3 -3 -12 -4 -19
-1 -8 3 -5 6 6 6 11 1 17 -2 13 -5z m-2157 -47 c0 -2 -10 -12 -22 -23 l-23
-19 19 23 c18 21 26 27 26 19z m590 -1 c0 -2 -17 -16 -37 -31 l-38 -26 35 30
c34 31 40 35 40 27z m-660 -60 c0 -2 -8 -10 -17 -17 -16 -13 -17 -12 -4 4 13
16 21 21 21 13z m580 0 c0 -2 -33 -30 -72 -62 -40 -32 -109 -92 -153 -133 -53
-50 -63 -58 -30 -22 40 43 243 221 253 221 1 0 2 -2 2 -4z m-312 -296 c-7 -10
-14 -17 -17 -15 -4 4 18 35 25 35 2 0 -1 -9 -8 -20z m-41 -142 c-2 -13 -4 -3
-4 22 0 25 2 35 4 23 2 -13 2 -33 0 -45z m1630 -4 c-3 -3 -12 -4 -19 -1 -8 3
-5 6 6 6 11 1 17 -2 13 -5z m76 -1 c-7 -2 -19 -2 -25 0 -7 3 -2 5 12 5 14 0
19 -2 13 -5z m107 -69 c33 -36 33 -36 -15 6 -27 24 -52 46 -55 48 -3 3 4 0 15
-6 11 -6 36 -27 55 -48z m-301 32 c-2 -2 -15 -9 -29 -15 -24 -11 -24 -11 -6 3
16 13 49 24 35 12z m-84 -44 c-18 -15 -85 -54 -85 -48 0 3 19 16 43 30 43 26
59 33 42 18z m436 -49 c13 -16 12 -17 -3 -4 -17 13 -22 21 -14 21 2 0 10 -8
17 -17z m-531 -7 c0 -2 -12 -11 -27 -20 l-28 -17 24 20 c23 21 31 25 31 17z
m-1245 -36 c10 -11 16 -20 13 -20 -3 0 -13 9 -23 20 -10 11 -16 20 -13 20 3 0
13 -9 23 -20z m1805 0 c6 -11 8 -20 6 -20 -3 0 -10 9 -16 20 -6 11 -8 20 -6
20 3 0 10 -9 16 -20z m-620 -4 c0 -3 -47 -36 -105 -71 -49 -30 -15 -1 45 39
55 36 60 39 60 32z m-1139 -53 c13 -16 12 -17 -3 -4 -10 7 -18 15 -18 17 0 8
8 3 21 -13z m50 -40 c13 -16 12 -17 -3 -4 -10 7 -18 15 -18 17 0 8 8 3 21 -13z
m944 -3 c-3 -5 -16 -15 -28 -21 -19 -9 -19 -8 3 10 28 23 34 26 25 11z m812
-12 c-3 -8 -6 -5 -6 6 -1 11 2 17 5 13 3 -3 4 -12 1 -19z m-872 -28 c-3 -5
-16 -15 -28 -21 -19 -9 -19 -8 3 10 28 23 34 26 25 11z m882 -12 c-3 -8 -6 -5
-6 6 -1 11 2 17 5 13 3 -3 4 -12 1 -19z m-937 -22 c0 -3 -47 -36 -105 -71 -49
-30 -15 -1 45 39 55 36 60 39 60 32z m937 -58 c-3 -8 -6 -5 -6 6 -1 11 2 17 5
13 3 -3 4 -12 1 -19z m-1087 -41 c-18 -17 -98 -64 -87 -51 9 10 89 62 97 63 2
1 -2 -5 -10 -12z m1040 -50 c0 -2 -10 -12 -22 -23 l-23 -19 19 23 c18 21 26
27 26 19z m-1140 -12 c0 -2 -10 -9 -22 -15 -22 -11 -22 -10 -4 4 21 17 26 19
26 11z m-80 -50 c0 -2 -10 -9 -22 -15 -22 -11 -22 -10 -4 4 21 17 26 19 26 11z
m-50 -30 c0 -2 -10 -9 -22 -15 -22 -11 -22 -10 -4 4 21 17 26 19 26 11z m1170
-8 c0 -2 -12 -14 -27 -28 l-28 -24 24 28 c23 25 31 32 31 24z m-1220 -22 c0
-2 -13 -11 -30 -20 -38 -19 -40 -11 -2 9 31 17 32 18 32 11z m-75 -45 c-3 -5
-12 -10 -18 -10 -7 0 -6 4 3 10 19 12 23 12 15 0z m1225 6 c0 -2 -8 -10 -17
-17 -16 -13 -17 -12 -4 4 13 16 21 21 21 13z m-1260 -21 c0 -2 -13 -11 -30
-20 -38 -19 -40 -11 -2 9 31 17 32 18 32 11z m-70 -39 c0 -2 -7 -7 -16 -10 -8
-3 -12 -2 -9 4 6 10 25 14 25 6z m-100 -51 c-25 -13 -49 -24 -55 -24 -5 0 10
11 35 24 25 13 50 24 55 24 6 0 -10 -11 -35 -24z m1881 11 c-6 -8 -46 -42 -89
-77 -91 -74 -77 -56 23 30 71 61 86 72 66 47z m-2336 -74 c-5 -5 -83 36 -89
47 -3 5 16 -3 43 -18 27 -14 48 -27 46 -29z m375 28 c-8 -5 -19 -10 -25 -10
-5 0 -3 5 5 10 8 5 20 10 25 10 6 0 3 -5 -5 -10z m-303 -46 c-3 -3 -12 -4 -19
-1 -8 3 -5 6 6 6 11 1 17 -2 13 -5z m166 -1 c-7 -2 -19 -2 -25 0 -7 3 -2 5 12
5 14 0 19 -2 13 -5z m1397 3 c0 -2 -8 -10 -17 -17 -16 -13 -17 -12 -4 4 13 16
21 21 21 13z m-1472 -13 c-16 -2 -40 -2 -55 0 -16 2 -3 4 27 4 30 0 43 -2 28
-4z m2002 -36 c0 -2 -10 -12 -22 -23 l-23 -19 19 23 c18 21 26 27 26 19z
m-660 -41 c0 -2 -8 -10 -17 -17 -16 -13 -17 -12 -4 4 13 16 21 21 21 13z m610
1 c0 -2 -10 -12 -22 -23 l-23 -19 19 23 c18 21 26 27 26 19z m-55 -47 c-3 -5
-20 -19 -38 -30 -32 -22 -32 -22 3 9 37 32 45 37 35 21z m-1274 -17 c13 -16
12 -17 -3 -4 -10 7 -18 15 -18 17 0 8 8 3 21 -13z m30 -40 c13 -16 12 -17 -3
-4 -10 7 -18 15 -18 17 0 8 8 3 21 -13z m1164 -3 c-3 -5 -20 -19 -38 -30 -32
-22 -32 -22 3 9 37 32 45 37 35 21z m-75 -54 c0 -2 -8 -10 -17 -17 -16 -13
-17 -12 -4 4 13 16 21 21 21 13z m-40 -30 c0 -2 -17 -16 -37 -31 l-38 -26 35
30 c34 31 40 35 40 27z m-1370 -30 c0 -2 -8 -10 -17 -17 -16 -13 -17 -12 -4 4
13 16 21 21 21 13z m1290 -30 c0 -3 -15 -14 -32 -26 l-33 -22 30 26 c31 27 35
29 35 22z m-130 -91 c0 -4 -126 -91 -160 -110 -33 -19 4 11 77 61 84 57 83 56
83 49z m-1389 -92 c13 -16 12 -17 -3 -4 -17 13 -22 21 -14 21 2 0 10 -8 17
-17z m30 -40 c13 -16 12 -17 -3 -4 -17 13 -22 21 -14 21 2 0 10 -8 17 -17z
m1169 2 c-7 -8 -17 -15 -23 -15 -6 0 -2 7 9 15 25 19 30 19 14 0z"/>
</g>
</svg>
